<svg width="128" height="128" viewBox="0 0 128 128" fill="none" xmlns="http://www.w3.org/2000/svg">
<path d="M121 73.0413C121 52.7256 101.532 52.7256 83.5608 52.7256V115.159H121V73.0413Z" fill="white"/>
<path d="M83.5406 52.7256C82.293 72.7557 65.6525 88.615 45.3078 88.615C36.7192 88.615 28.7907 85.7886 22.4017 81.0152C24.8987 70.2659 35.8153 52.7305 83.5406 52.7256Z" fill="#37A0C9"/>
<path d="M47.8686 114.168C33.3946 114.168 21.6611 102.521 21.6611 88.1542C21.6611 86.6677 21.6611 83.7101 22.6283 80.11C22.546 80.4166 22.4706 80.7185 22.4017 81.0152C28.7906 85.7886 36.7191 88.615 45.3078 88.615C65.6525 88.615 82.2929 72.7557 83.5406 52.7256C83.5473 52.7256 83.554 52.7256 83.5607 52.7256C83.5607 108.47 63.8427 114.168 47.8686 114.168Z" fill="white"/>
<path d="M22.4018 81.0152C22.4018 81.0153 22.4018 81.0152 22.4018 81.0152C24.8988 70.2659 35.8153 52.7305 83.5406 52.7256C83.5904 51.926 83.6157 51.1197 83.6157 50.3075C83.6157 29.1509 66.4647 12 45.3078 12C24.151 12 7 29.1509 7 50.3075C7 62.8756 13.0525 74.0301 22.4018 81.0152Z" fill="white"/>
</svg>
